<?xml version="1.0" standalone="no"?>
<!DOCTYPE svg PUBLIC "-//W3C//DTD SVG 20010904//EN"
 "http://www.w3.org/TR/2001/REC-SVG-20010904/DTD/svg10.dtd">
<svg version="1.0" xmlns="http://www.w3.org/2000/svg"
 width="119.000000pt" height="119.000000pt" viewBox="0 0 119.000000 119.000000"
 preserveAspectRatio="xMidYMid meet">
<metadata>
Created by potrace 1.14, written by Peter Selinger 2001-2017
</metadata>
<g transform="translate(0.000000,119.000000) scale(0.100000,-0.100000)"
fill="#000000" stroke="none">
<path d="M0 595 l0 -595 595 0 595 0 0 595 0 595 -595 0 -595 0 0 -595z m524
73 c38 -87 73 -158 77 -158 4 0 36 71 72 158 l65 157 36 3 36 3 -23 -53 c-13
-29 -53 -117 -88 -195 l-63 -143 -37 0 -36 0 -84 181 c-46 100 -85 175 -87
165 -3 -13 -17 -16 -78 -16 l-74 0 0 -165 0 -165 -35 0 -35 0 0 165 0 165 -70
0 -70 0 0 30 0 30 212 -2 211 -3 71 -157z m386 -3 l0 -165 130 0 130 0 0 -30
0 -30 -165 0 -165 0 0 195 0 195 35 0 35 0 0 -165z"/>
</g>
</svg>
